<svg width="14" height="14" viewBox="0 0 14 14" fill="none" xmlns="http://www.w3.org/2000/svg">
<g clip-path="url(#clip0_37_801)">
<path d="M7.54628 10.8891L13.7763 4.6589C13.9206 4.5148 14 4.32244 14 4.11734C14 3.91224 13.9206 3.71988 13.7763 3.57578L13.3176 3.11697C13.0188 2.81842 12.533 2.81842 12.2345 3.11697L7.0029 8.3486L1.76547 3.11117C1.62126 2.96707 1.42901 2.88751 1.22402 2.88751C1.01881 2.88751 0.826563 2.96707 0.68224 3.11117L0.223658 3.56998C0.0794477 3.71419 9.09136e-07 3.90643 9.00171e-07 4.11153C8.91205e-07 4.31664 0.0794477 4.50899 0.223658 4.65309L6.45941 10.8891C6.60408 11.0335 6.79723 11.1128 7.00256 11.1124C7.20869 11.1128 7.40173 11.0335 7.54628 10.8891Z" fill="#C1B9B9"/>
</g>
<defs>
<clipPath id="clip0_37_801">
<rect width="14" height="14" fill="white" transform="translate(14) rotate(90)"/>
</clipPath>
</defs>
</svg>
