<svg width="14" height="15" viewBox="0 0 14 15" fill="none" xmlns="http://www.w3.org/2000/svg">
<path d="M10.889 6.9147L4.65883 0.239632C4.51474 0.0851213 4.32238 0 4.11728 0C3.91217 0 3.71982 0.0851213 3.57572 0.239632L3.11691 0.731092C2.81836 1.05133 2.81836 1.57182 3.11691 1.89157L8.34854 7.49689L3.11111 13.1084C2.96701 13.2629 2.88745 13.4689 2.88745 13.6885C2.88745 13.9084 2.96701 14.1144 3.11111 14.269L3.56992 14.7604C3.71413 14.9149 3.90637 15 4.11147 15C4.31658 15 4.50893 14.9149 4.65303 14.7604L10.889 8.0792C11.0334 7.9242 11.1128 7.71725 11.1123 7.49726C11.1128 7.2764 11.0334 7.06958 10.889 6.9147Z" fill="#8E8D8D"/>
</svg>
