<svg width="14" height="15" viewBox="0 0 14 15" fill="none" xmlns="http://www.w3.org/2000/svg">
<g clip-path="url(#clip0_37_932)">
<path d="M3.11099 8.0853L9.34117 14.7604C9.48526 14.9149 9.67762 15 9.88272 15C10.0878 15 10.2802 14.9149 10.4243 14.7604L10.8831 14.2689C11.1816 13.9487 11.1816 13.4282 10.8831 13.1084L5.65146 7.50311L10.8889 1.89157C11.033 1.73706 11.1125 1.53109 11.1125 1.31145C11.1125 1.09158 11.033 0.885603 10.8889 0.730969L10.4301 0.239633C10.2859 0.0851212 10.0936 1.04275e-06 9.88853 1.06068e-06C9.68342 1.07861e-06 9.49107 0.0851213 9.34697 0.239633L3.11099 6.9208C2.96655 7.0758 2.88722 7.28275 2.88767 7.50274C2.88722 7.7236 2.96655 7.93042 3.11099 8.0853Z" fill="#8E8D8D"/>
</g>
<defs>
<clipPath id="clip0_37_932">
<rect width="14" height="15" fill="white" transform="translate(14 15) rotate(180)"/>
</clipPath>
</defs>
</svg>
