<svg width="19" height="19" viewBox="0 0 19 19" fill="none" xmlns="http://www.w3.org/2000/svg">
<g clip-path="url(#clip0_105_48)">
<path d="M9.50008 6.90912C8.07076 6.90912 6.90918 8.0707 6.90918 9.50003C6.90918 10.9294 8.07076 12.0909 9.50008 12.0909C10.9294 12.0909 12.091 10.9294 12.091 9.50003C12.091 8.0707 10.9294 6.90912 9.50008 6.90912Z" fill="#C4C4C4"/>
<path d="M9.50002 3.02275C5.18182 3.02275 1.49411 5.70863 0 9.50003C1.49411 13.2914 5.18182 15.9773 9.50002 15.9773C13.8225 15.9773 17.5059 13.2914 19 9.50003C17.5059 5.70863 13.8225 3.02275 9.50002 3.02275ZM9.50002 13.8182C7.11638 13.8182 5.18182 11.8836 5.18182 9.49999C5.18182 7.11635 7.11638 5.18183 9.50002 5.18183C11.8837 5.18183 13.8182 7.11639 13.8182 9.50003C13.8182 11.8837 11.8837 13.8182 9.50002 13.8182Z" fill="#C4C4C4"/>
</g>
<defs>
<clipPath id="clip0_105_48">
<rect width="19" height="19" fill="white"/>
</clipPath>
</defs>
</svg>
