<svg width="97" height="97" viewBox="0 0 97 97" fill="none" xmlns="http://www.w3.org/2000/svg">
<g clip-path="url(#clip0_22_324)">
<path d="M91.5276 48.3681L89.251 50.425L91.3066 52.7002L93.5832 50.6433L91.5276 48.3681Z" fill="#99A2A9"/>
<path d="M86.9906 50.2187L83.9546 52.9517L86.6888 55.9891L89.7248 53.2562L86.9906 50.2187Z" fill="#99A2A9"/>
<path d="M95.6337 47.6442L94.1172 49.011L95.484 50.5275L97.0005 49.1606L95.6337 47.6442Z" fill="#99A2A9"/>
<path d="M87.48 38.9843L85.2012 41.0356L87.2525 43.3145L89.5313 41.2632L87.48 38.9843Z" fill="#99A2A9"/>
<path d="M93.6921 43.1126L92.1787 44.48L93.5474 45.9948L95.0608 44.6275L93.6921 43.1126Z" fill="#99A2A9"/>
<path d="M10.1748 43.2405L8.68738 50.9499H8.58433L6.55831 43.2405H5.26143L3.36762 50.9499H3.26457L1.63326 43.2405H0L2.36045 53.5728H3.93537L5.85834 46.299H5.96139L7.94269 53.5728H9.51762L11.88 43.2405H10.1748Z" fill="#99A2A9"/>
<path d="M84.8358 44.9566L81.7969 47.6921L84.5311 50.7296L87.57 47.9941L84.8358 44.9566Z" fill="#99A2A9"/>
<path d="M82.6659 39.7807L79.6284 42.5149L82.3626 45.5524L85.4001 42.8181L82.6659 39.7807Z" fill="#99A2A9"/>
<path d="M89.5735 43.5671L87.3003 45.6189L89.356 47.8964L91.6292 45.8446L89.5735 43.5671Z" fill="#99A2A9"/>
<path d="M91.743 38.608L90.2266 39.9749L91.5934 41.4913L93.1099 40.1245L91.743 38.608Z" fill="#99A2A9"/>
<path d="M66.7983 46.3574L65.1436 51.7258H65.0561L63.1915 46.3594H61.5894L64.3853 53.6488C64.0353 54.7279 63.4248 55.5134 62.4332 55.5134V56.7053C64.1073 56.7053 64.9959 55.6573 65.725 53.6449L68.3596 46.3574H66.7983Z" fill="#99A2A9"/>
<path d="M18.5529 49.6724C18.5548 47.2906 17.4329 46.1143 15.6111 46.1143C13.4256 46.1143 12.3037 47.7145 12.3037 49.931C12.3037 52.2351 13.3109 53.7497 15.7569 53.7497C16.8049 53.7497 17.6799 53.4581 18.3351 53.0751V51.9726C17.534 52.449 16.8049 52.729 16.0194 52.729C14.5203 52.729 13.8048 51.959 13.8048 50.2071H18.5529V49.6724ZM13.8339 49.2291C13.9934 47.7747 14.6797 47.0884 15.5683 47.0884C16.3558 47.0884 17.0985 47.697 17.1704 49.2291H13.8339Z" fill="#99A2A9"/>
<path d="M93.5338 52.9719L91.2559 55.0244L93.3097 57.3038L95.5876 55.2512L93.5338 52.9719Z" fill="#99A2A9"/>
<path d="M61.1286 49.6724C61.1324 47.2906 60.0086 46.1143 58.1887 46.1143C56.0013 46.1143 54.8813 47.7145 54.8813 49.931C54.8813 52.2351 55.8866 53.7497 58.3326 53.7497C59.3806 53.7497 60.2517 53.4581 60.9088 53.0751V51.9726C60.1097 52.449 59.3806 52.729 58.5951 52.729C57.096 52.729 56.3785 51.959 56.3785 50.2071H61.1286V49.6724ZM56.4077 49.2291C56.571 47.7747 57.2574 47.0884 58.1459 47.0884C58.9295 47.0884 59.6761 47.697 59.7481 49.2291H56.4077Z" fill="#99A2A9"/>
<path d="M89.5376 55.5541L86.5686 58.2918L81.5561 52.7134L82.9502 51.4866L79.4406 47.557L80.8425 46.3282L77.2804 42.4025L82.8393 37.3978L84.6048 39.3304L87.5855 36.6706L89.3471 38.4963L90.5215 37.4444C90.259 37.2928 89.9965 37.1528 89.7301 37.0264C88.0366 36.1981 86.135 35.7314 84.1323 35.7314C77.0996 35.7314 71.3618 41.4673 71.3618 48.502C71.3618 55.5347 77.0996 61.2705 84.1323 61.2705C86.4169 61.2705 88.5693 60.6659 90.4262 59.6062C91.0387 59.2601 91.5967 58.8848 92.1061 58.4901L89.5376 55.5541Z" fill="#99A2A9"/>
<path d="M23.3632 46.1143C22.5757 46.1143 21.833 46.4196 21.3936 46.6529V42.4998L19.8789 42.8634V53.0343C20.7539 53.499 21.9477 53.7479 22.7216 53.7479C24.8351 53.7479 26.1456 52.4199 26.1456 49.6939C26.1456 47.3665 25.1695 46.1143 23.3632 46.1143ZM22.7216 52.7271C22.356 52.7271 21.8485 52.6998 21.3819 52.4957V47.7301C21.9652 47.4093 22.3891 47.2498 22.9685 47.2498C23.9446 47.2498 24.6173 47.8487 24.6173 49.6958C24.6173 52.0563 23.8007 52.7271 22.7216 52.7271Z" fill="#99A2A9"/>
<path d="M51.1229 46.1104C49.4469 46.1104 48.0625 46.7948 47.4072 47.1875V53.5689H48.9199V47.8C49.371 47.5375 50.1157 47.275 50.6971 47.275C51.4457 47.275 52.0115 47.4792 52.0115 48.6302V53.5708H53.5261V48.2978C53.5261 46.7987 52.8689 46.1142 51.1229 46.1104Z" fill="#99A2A9"/>
<path d="M35.9688 43.2405L32.8539 51.3854H32.7801L29.5155 43.2405H27.7539V53.5728H29.0644V46.2562H29.1947L32.1676 53.5728H33.0989L36.0719 46.0792H36.2021V53.5728H37.7751V43.2405H35.9688Z" fill="#99A2A9"/>
<path d="M42.6999 46.1143C40.7769 46.1143 39.377 47.382 39.377 49.931C39.377 52.4218 40.7049 53.7497 42.6999 53.7497C44.6967 53.7497 46.0228 52.4218 46.0228 49.931C46.0228 47.38 44.6228 46.1143 42.6999 46.1143ZM42.6999 52.727C41.6655 52.727 40.9072 51.9298 40.9072 49.931C40.9072 47.9633 41.7393 47.1331 42.6999 47.1331C43.6915 47.1331 44.4925 47.9633 44.4925 49.931C44.4925 51.9279 43.7342 52.727 42.6999 52.727Z" fill="#99A2A9"/>
</g>
<defs>
<clipPath id="clip0_22_324">
<rect width="97" height="97" fill="white"/>
</clipPath>
</defs>
</svg>
